<?xml version="1.0" standalone="no"?>
<!DOCTYPE svg PUBLIC "-//W3C//DTD SVG 20010904//EN"
 "http://www.w3.org/TR/2001/REC-SVG-20010904/DTD/svg10.dtd">
<svg version="1.0" xmlns="http://www.w3.org/2000/svg"
 width="155.000000pt" height="155.000000pt" viewBox="0 0 155.000000 155.000000"
 preserveAspectRatio="xMidYMid meet">
<metadata>
Created by potrace 1.14, written by Peter Selinger 2001-2017
</metadata>
<g transform="translate(0.000000,155.000000) scale(0.100000,-0.100000)"
fill="#000000" stroke="none">
<path d="M595 1449 c-94 -54 -210 -121 -260 -150 -49 -29 -103 -60 -118 -69
l-29 -17 147 -87 c81 -47 151 -86 157 -86 10 0 201 108 248 141 26 17 27 17
165 -62 76 -44 145 -77 152 -75 24 10 294 168 291 171 -2 2 -100 59 -218 127
-319 184 -333 192 -350 199 -10 4 -80 -31 -185 -92z"/>
<path d="M152 753 l3 -398 205 -118 c113 -65 223 -129 245 -141 22 -13 68 -40
102 -60 l62 -37 198 115 c109 62 248 143 308 178 l110 64 3 178 2 177 -57 -32
c-32 -17 -62 -35 -68 -39 -28 -21 -486 -280 -495 -280 -19 0 -310 171 -311
183 -1 7 -2 106 -3 221 l-1 210 -85 49 c-47 27 -101 58 -120 69 -19 11 -50 29
-68 40 l-32 20 2 -399z"/>
<path d="M1200 1041 c-102 -59 -240 -140 -307 -179 l-123 -71 -87 51 c-49 27
-103 59 -120 70 l-33 20 0 -179 0 -178 120 -68 120 -69 273 158 c149 86 289
166 310 177 l37 21 0 178 c0 98 -1 178 -2 177 -2 0 -86 -49 -188 -108z"/>
</g>
</svg>
