<?xml version="1.0" standalone="no"?>
<!DOCTYPE svg PUBLIC "-//W3C//DTD SVG 20010904//EN"
 "http://www.w3.org/TR/2001/REC-SVG-20010904/DTD/svg10.dtd">
<svg version="1.0" xmlns="http://www.w3.org/2000/svg"
 width="155.000000pt" height="155.000000pt" viewBox="0 0 155.000000 155.000000"
 preserveAspectRatio="xMidYMid meet">
<metadata>
Created by potrace 1.14, written by Peter Selinger 2001-2017
</metadata>
<g transform="translate(0.000000,155.000000) scale(0.100000,-0.100000)"
fill="#000000" stroke="none">
<path d="M530 1412 c-129 -76 -259 -151 -288 -168 l-54 -31 139 -81 c76 -44
145 -84 154 -87 10 -4 66 23 146 69 72 42 136 76 143 76 7 0 71 -34 142 -75
71 -41 132 -75 135 -75 9 0 304 172 301 175 -7 6 -578 335 -581 334 -1 0 -108
-62 -237 -137z"/>
<path d="M152 749 l3 -391 300 -174 c165 -95 307 -173 315 -173 8 0 150 78
315 174 l300 173 3 175 2 176 -309 -179 -310 -179 -161 92 -160 92 0 220 0
220 -144 83 c-78 45 -146 82 -150 82 -3 0 -5 -176 -4 -391z"/>
<path d="M1073 964 l-303 -176 -113 66 c-62 36 -117 66 -121 66 -3 0 -5 -77
-4 -172 l3 -172 117 -68 117 -68 308 178 308 178 3 172 c1 95 -1 172 -5 172
-5 -1 -144 -80 -310 -176z"/>
</g>
</svg>
